<?xml version="1.0" encoding="UTF-8"?>
<!DOCTYPE svg PUBLIC "-//W3C//DTD SVG 1.1//EN" "http://www.w3.org/Graphics/SVG/1.1/DTD/svg11.dtd">
<!-- Creator: CorelDRAW -->
<svg xmlns="http://www.w3.org/2000/svg" xml:space="preserve" width="47.5mm" height="45.2768mm" version="1.1" style="shape-rendering:geometricPrecision; text-rendering:geometricPrecision; image-rendering:optimizeQuality; fill-rule:evenodd; clip-rule:evenodd"
viewBox="0 0 4750 4527.68"
 xmlns:xlink="http://www.w3.org/1999/xlink"
 xmlns:xodm="http://www.corel.com/coreldraw/odm/2003">
 <defs>
  <style type="text/css">
   <![CDATA[
    .fil0 {fill:#CC3300}
   ]]>
  </style>
 </defs>
 <g id="_0">
  <metadata id="CorelCorpID_0Corel-Layer"/>
  <path class="fil0" d="M2742.93 2653.21c0,-207.11 -167.89,-375 -375.01,-375 -207.1,0 -375,167.89 -375,375 0,207.1 167.89,375 375,375 207.11,0 375.01,-167.89 375.01,-375zm-1589.39 769.3c-365.61,-577.13 -274.53,-1331.86 217.89,-1805.42 492.42,-473.56 1250.12,-535.13 1812.54,-147.27 562.41,387.85 774.14,1117.97 506.5,1746.54 -267.64,628.58 -940.72,981.94 -1610.1,845.3 -50.93,-10.39 -87.5,-55.19 -87.5,-107.16l0 -418.51c0,-34.59 16.36,-67.15 44.12,-87.78 27.76,-20.64 63.64,-26.93 96.77,-16.96 335.5,100.95 697.93,-24.53 899.19,-311.32 201.25,-286.78 196.01,-670.28 -13.01,-951.46 -209.03,-281.18 -574.75,-396.7 -907.37,-286.62 -332.61,110.09 -557.2,421 -557.2,771.35l0 1387.73c0,197.67 132.54,370.79 323.37,422.35 535.81,144.79 1108.24,44.76 1563.18,-273.18 38.32,-26.78 89.64,-25.36 126.43,3.49l272.21 213.47c42.3,33.16 102.7,29.52 140.7,-8.48l131.98 -131.99c38.01,-38 41.65,-98.4 8.48,-140.69l-263.08 -335.48c181.37,-237.77 303.25,-515.47 355.45,-809.93 8.16,-46.03 45.45,-81.32 91.86,-86.94l343.43 -41.53c53.36,-6.46 93.49,-51.74 93.49,-105.48l0 -186.66c0,-53.74 -40.13,-99.03 -93.49,-105.48l-343.43 -41.54c-46.41,-5.61 -83.7,-40.9 -91.86,-86.93 -47.59,-268.46 -153.15,-523.3 -309.32,-746.78 -26.78,-38.32 -25.37,-89.64 3.48,-126.42l213.47 -272.22c33.17,-42.29 29.53,-102.69 -8.48,-140.69l-131.98 -131.99c-38,-38 -98.4,-41.64 -140.7,-8.48l-272.21 213.47c-36.79,28.85 -88.11,30.27 -126.43,3.49 -48.53,-33.92 -98.64,-65.52 -150.16,-94.69 -29.99,-16.98 -49.88,-47.45 -53.36,-81.73 -16.61,-163.8 -79.1,-319.59 -180.29,-449.46 -25.72,-33.01 -29.67,-78.04 -10.09,-115.02l129.5 -244.61c8.58,-16.2 4.19,-36.22 -10.38,-47.35l-98.53 -75.22c-14.57,-11.13 -35.05,-10.09 -48.42,2.46l-201.83 189.38c-30.52,28.63 -75,36.69 -113.61,20.58 -215.58,-89.93 -458.18,-89.93 -673.76,0 -38.61,16.11 -83.09,8.05 -113.61,-20.58l-201.83 -189.38c-13.37,-12.55 -33.85,-13.59 -48.42,-2.46l-98.53 75.22c-14.57,11.13 -18.96,31.15 -10.38,47.35l129.5 244.61c19.58,36.98 15.63,82.01 -10.09,115.02 -101.19,129.87 -163.68,285.66 -180.29,449.46 -3.48,34.28 -23.37,64.75 -53.36,81.73 -51.52,29.17 -101.63,60.77 -150.16,94.69 -38.32,26.78 -89.64,25.36 -126.43,-3.49l-272.21 -213.47c-42.3,-33.16 -102.7,-29.52 -140.7,8.48l-131.98 131.99c-38.01,38 -41.65,98.4 -8.48,140.69l213.47 272.22c28.85,36.78 30.26,88.1 3.48,126.42 -156.17,223.48 -261.73,478.32 -309.32,746.78 -8.16,46.03 -45.45,81.32 -91.86,86.93l-343.43 41.54c-53.36,6.45 -93.49,51.74 -93.49,105.48l0 186.65c0,53.75 40.13,99.03 93.49,105.49l343.43 41.53c46.41,5.62 83.7,40.91 91.86,86.94 42.6,240.31 131.7,469.98 262.31,676.15 64.66,102.05 199.8,132.37 301.86,67.72 102.05,-64.65 132.37,-199.8 67.72,-301.85z"/>
 </g>
</svg>
